<mxfile host="app.diagrams.net" modified="2020-12-08T19:07:33.588Z" agent="5.0 (Macintosh; Intel Mac OS X 11_0_0) AppleWebKit/537.36 (KHTML, like Gecko) Chrome/86.0.4240.198 Safari/537.36" etag="xC7BZwxsNZceLJ4ZgSD1" version="13.11.0" type="github">
  <diagram id="susmKc4R1bcolVnX3SPK" name="Page-1">
    <mxGraphModel dx="739" dy="665" grid="1" gridSize="10" guides="1" tooltips="1" connect="1" arrows="1" fold="1" page="1" pageScale="1" pageWidth="850" pageHeight="1100" math="0" shadow="0">
      <root>
        <mxCell id="0" />
        <mxCell id="1" parent="0" />
        <mxCell id="eS9AzGm47g6UEKA8w0Gg-1" value="SecurityGroup" style="swimlane;fontStyle=0;childLayout=stackLayout;horizontal=1;startSize=26;fillColor=none;horizontalStack=0;resizeParent=1;resizeParentMax=0;resizeLast=0;collapsible=1;marginBottom=0;" vertex="1" parent="1">
          <mxGeometry x="284" y="170" width="280" height="114" as="geometry">
            <mxRectangle x="290" y="120" width="80" height="26" as="alternateBounds" />
          </mxGeometry>
        </mxCell>
        <mxCell id="eS9AzGm47g6UEKA8w0Gg-2" value="+ tenant_id: String&#xa;" style="text;strokeColor=none;fillColor=none;align=left;verticalAlign=top;spacingLeft=4;spacingRight=4;overflow=hidden;rotatable=0;points=[[0,0.5],[1,0.5]];portConstraint=eastwest;" vertex="1" parent="eS9AzGm47g6UEKA8w0Gg-1">
          <mxGeometry y="26" width="280" height="22" as="geometry" />
        </mxCell>
        <mxCell id="eS9AzGm47g6UEKA8w0Gg-3" value="+ security_group_rules: List&lt;SecurityGroupRule&gt;&#xa;" style="text;strokeColor=none;fillColor=none;align=left;verticalAlign=top;spacingLeft=4;spacingRight=4;overflow=hidden;rotatable=0;points=[[0,0.5],[1,0.5]];portConstraint=eastwest;" vertex="1" parent="eS9AzGm47g6UEKA8w0Gg-1">
          <mxGeometry y="48" width="280" height="22" as="geometry" />
        </mxCell>
        <mxCell id="eS9AzGm47g6UEKA8w0Gg-12" value="+ create_at: String&#xa;" style="text;strokeColor=none;fillColor=none;align=left;verticalAlign=top;spacingLeft=4;spacingRight=4;overflow=hidden;rotatable=0;points=[[0,0.5],[1,0.5]];portConstraint=eastwest;" vertex="1" parent="eS9AzGm47g6UEKA8w0Gg-1">
          <mxGeometry y="70" width="280" height="22" as="geometry" />
        </mxCell>
        <mxCell id="eS9AzGm47g6UEKA8w0Gg-13" value="+ update_at: String&#xa;" style="text;strokeColor=none;fillColor=none;align=left;verticalAlign=top;spacingLeft=4;spacingRight=4;overflow=hidden;rotatable=0;points=[[0,0.5],[1,0.5]];portConstraint=eastwest;" vertex="1" parent="eS9AzGm47g6UEKA8w0Gg-1">
          <mxGeometry y="92" width="280" height="22" as="geometry" />
        </mxCell>
        <mxCell id="eS9AzGm47g6UEKA8w0Gg-14" value="Extends" style="endArrow=block;endSize=16;endFill=0;html=1;exitX=0.5;exitY=0;exitDx=0;exitDy=0;entryX=0.5;entryY=1;entryDx=0;entryDy=0;" edge="1" parent="1" source="eS9AzGm47g6UEKA8w0Gg-1" target="eS9AzGm47g6UEKA8w0Gg-16">
          <mxGeometry width="160" relative="1" as="geometry">
            <mxPoint x="294" y="80" as="sourcePoint" />
            <mxPoint x="399" y="90" as="targetPoint" />
          </mxGeometry>
        </mxCell>
        <mxCell id="eS9AzGm47g6UEKA8w0Gg-16" value="&lt;p style=&quot;margin: 0px ; margin-top: 4px ; text-align: center&quot;&gt;&lt;b&gt;CustomerResource&lt;/b&gt;&lt;/p&gt;&lt;hr size=&quot;1&quot;&gt;&lt;div style=&quot;height: 2px&quot;&gt;&lt;/div&gt;" style="verticalAlign=top;align=left;overflow=fill;fontSize=12;fontFamily=Helvetica;html=1;" vertex="1" parent="1">
          <mxGeometry x="354" y="70" width="140" height="30" as="geometry" />
        </mxCell>
        <mxCell id="eS9AzGm47g6UEKA8w0Gg-20" value="SecurityGroupRule" style="swimlane;fontStyle=0;childLayout=stackLayout;horizontal=1;startSize=26;fillColor=none;horizontalStack=0;resizeParent=1;resizeParentMax=0;resizeLast=0;collapsible=1;marginBottom=0;" vertex="1" parent="1">
          <mxGeometry x="270" y="460" width="180" height="202" as="geometry">
            <mxRectangle x="290" y="120" width="80" height="26" as="alternateBounds" />
          </mxGeometry>
        </mxCell>
        <mxCell id="eS9AzGm47g6UEKA8w0Gg-21" value="+ security_group_id: String" style="text;strokeColor=none;fillColor=none;align=left;verticalAlign=top;spacingLeft=4;spacingRight=4;overflow=hidden;rotatable=0;points=[[0,0.5],[1,0.5]];portConstraint=eastwest;" vertex="1" parent="eS9AzGm47g6UEKA8w0Gg-20">
          <mxGeometry y="26" width="180" height="22" as="geometry" />
        </mxCell>
        <mxCell id="eS9AzGm47g6UEKA8w0Gg-22" value="+ remote_group_id: String" style="text;strokeColor=none;fillColor=none;align=left;verticalAlign=top;spacingLeft=4;spacingRight=4;overflow=hidden;rotatable=0;points=[[0,0.5],[1,0.5]];portConstraint=eastwest;" vertex="1" parent="eS9AzGm47g6UEKA8w0Gg-20">
          <mxGeometry y="48" width="180" height="22" as="geometry" />
        </mxCell>
        <mxCell id="eS9AzGm47g6UEKA8w0Gg-23" value="+ direction: String&#xa;" style="text;strokeColor=none;fillColor=none;align=left;verticalAlign=top;spacingLeft=4;spacingRight=4;overflow=hidden;rotatable=0;points=[[0,0.5],[1,0.5]];portConstraint=eastwest;" vertex="1" parent="eS9AzGm47g6UEKA8w0Gg-20">
          <mxGeometry y="70" width="180" height="22" as="geometry" />
        </mxCell>
        <mxCell id="eS9AzGm47g6UEKA8w0Gg-24" value="+ remote_ip_prefix: String&#xa;" style="text;strokeColor=none;fillColor=none;align=left;verticalAlign=top;spacingLeft=4;spacingRight=4;overflow=hidden;rotatable=0;points=[[0,0.5],[1,0.5]];portConstraint=eastwest;" vertex="1" parent="eS9AzGm47g6UEKA8w0Gg-20">
          <mxGeometry y="92" width="180" height="22" as="geometry" />
        </mxCell>
        <mxCell id="eS9AzGm47g6UEKA8w0Gg-27" value="+ protocol: String&#xa;" style="text;strokeColor=none;fillColor=none;align=left;verticalAlign=top;spacingLeft=4;spacingRight=4;overflow=hidden;rotatable=0;points=[[0,0.5],[1,0.5]];portConstraint=eastwest;" vertex="1" parent="eS9AzGm47g6UEKA8w0Gg-20">
          <mxGeometry y="114" width="180" height="22" as="geometry" />
        </mxCell>
        <mxCell id="eS9AzGm47g6UEKA8w0Gg-28" value="+ port_range_max: String&#xa;" style="text;strokeColor=none;fillColor=none;align=left;verticalAlign=top;spacingLeft=4;spacingRight=4;overflow=hidden;rotatable=0;points=[[0,0.5],[1,0.5]];portConstraint=eastwest;" vertex="1" parent="eS9AzGm47g6UEKA8w0Gg-20">
          <mxGeometry y="136" width="180" height="22" as="geometry" />
        </mxCell>
        <mxCell id="eS9AzGm47g6UEKA8w0Gg-29" value="+ port_range_min: String&#xa;" style="text;strokeColor=none;fillColor=none;align=left;verticalAlign=top;spacingLeft=4;spacingRight=4;overflow=hidden;rotatable=0;points=[[0,0.5],[1,0.5]];portConstraint=eastwest;" vertex="1" parent="eS9AzGm47g6UEKA8w0Gg-20">
          <mxGeometry y="158" width="180" height="22" as="geometry" />
        </mxCell>
        <mxCell id="eS9AzGm47g6UEKA8w0Gg-30" value="+ ethertype: String&#xa;" style="text;strokeColor=none;fillColor=none;align=left;verticalAlign=top;spacingLeft=4;spacingRight=4;overflow=hidden;rotatable=0;points=[[0,0.5],[1,0.5]];portConstraint=eastwest;" vertex="1" parent="eS9AzGm47g6UEKA8w0Gg-20">
          <mxGeometry y="180" width="180" height="22" as="geometry" />
        </mxCell>
        <mxCell id="eS9AzGm47g6UEKA8w0Gg-25" value="Extends" style="endArrow=block;endSize=16;endFill=0;html=1;exitX=0.5;exitY=0;exitDx=0;exitDy=0;entryX=0.5;entryY=1;entryDx=0;entryDy=0;" edge="1" parent="1" source="eS9AzGm47g6UEKA8w0Gg-20" target="eS9AzGm47g6UEKA8w0Gg-26">
          <mxGeometry width="160" relative="1" as="geometry">
            <mxPoint x="230" y="370" as="sourcePoint" />
            <mxPoint x="335" y="380" as="targetPoint" />
          </mxGeometry>
        </mxCell>
        <mxCell id="eS9AzGm47g6UEKA8w0Gg-26" value="&lt;p style=&quot;margin: 0px ; margin-top: 4px ; text-align: center&quot;&gt;&lt;b&gt;CustomerResource&lt;/b&gt;&lt;/p&gt;&lt;hr size=&quot;1&quot;&gt;&lt;div style=&quot;height: 2px&quot;&gt;&lt;/div&gt;" style="verticalAlign=top;align=left;overflow=fill;fontSize=12;fontFamily=Helvetica;html=1;" vertex="1" parent="1">
          <mxGeometry x="290" y="360" width="140" height="30" as="geometry" />
        </mxCell>
        <mxCell id="eS9AzGm47g6UEKA8w0Gg-31" value="&lt;&lt;enumeration&gt;&gt;&#xa;Direction" style="swimlane;fontStyle=1;align=center;verticalAlign=top;childLayout=stackLayout;horizontal=1;startSize=40;horizontalStack=0;resizeParent=1;resizeParentMax=0;resizeLast=0;collapsible=1;marginBottom=0;" vertex="1" parent="1">
          <mxGeometry x="590" y="390" width="130" height="126" as="geometry" />
        </mxCell>
        <mxCell id="eS9AzGm47g6UEKA8w0Gg-32" value="INGRESS(&quot;ingress&quot;)" style="text;strokeColor=none;fillColor=none;align=left;verticalAlign=top;spacingLeft=4;spacingRight=4;overflow=hidden;rotatable=0;points=[[0,0.5],[1,0.5]];portConstraint=eastwest;" vertex="1" parent="eS9AzGm47g6UEKA8w0Gg-31">
          <mxGeometry y="40" width="130" height="26" as="geometry" />
        </mxCell>
        <mxCell id="eS9AzGm47g6UEKA8w0Gg-33" value="EGRESS(&quot;egress&quot;)" style="text;strokeColor=none;fillColor=none;align=left;verticalAlign=top;spacingLeft=4;spacingRight=4;overflow=hidden;rotatable=0;points=[[0,0.5],[1,0.5]];portConstraint=eastwest;" vertex="1" parent="eS9AzGm47g6UEKA8w0Gg-31">
          <mxGeometry y="66" width="130" height="26" as="geometry" />
        </mxCell>
        <mxCell id="eS9AzGm47g6UEKA8w0Gg-35" value="" style="line;strokeWidth=1;fillColor=none;align=left;verticalAlign=middle;spacingTop=-1;spacingLeft=3;spacingRight=3;rotatable=0;labelPosition=right;points=[];portConstraint=eastwest;" vertex="1" parent="eS9AzGm47g6UEKA8w0Gg-31">
          <mxGeometry y="92" width="130" height="8" as="geometry" />
        </mxCell>
        <mxCell id="eS9AzGm47g6UEKA8w0Gg-36" value="+ direction: String" style="text;strokeColor=none;fillColor=none;align=left;verticalAlign=top;spacingLeft=4;spacingRight=4;overflow=hidden;rotatable=0;points=[[0,0.5],[1,0.5]];portConstraint=eastwest;" vertex="1" parent="eS9AzGm47g6UEKA8w0Gg-31">
          <mxGeometry y="100" width="130" height="26" as="geometry" />
        </mxCell>
        <mxCell id="eS9AzGm47g6UEKA8w0Gg-37" value="&lt;&lt;enumeration&gt;&gt;&#xa;EtherType" style="swimlane;fontStyle=1;align=center;verticalAlign=top;childLayout=stackLayout;horizontal=1;startSize=40;horizontalStack=0;resizeParent=1;resizeParentMax=0;resizeLast=0;collapsible=1;marginBottom=0;" vertex="1" parent="1">
          <mxGeometry x="590" y="560" width="130" height="126" as="geometry" />
        </mxCell>
        <mxCell id="eS9AzGm47g6UEKA8w0Gg-38" value="IPV4(&quot;IPv4&quot;)" style="text;strokeColor=none;fillColor=none;align=left;verticalAlign=top;spacingLeft=4;spacingRight=4;overflow=hidden;rotatable=0;points=[[0,0.5],[1,0.5]];portConstraint=eastwest;" vertex="1" parent="eS9AzGm47g6UEKA8w0Gg-37">
          <mxGeometry y="40" width="130" height="26" as="geometry" />
        </mxCell>
        <mxCell id="eS9AzGm47g6UEKA8w0Gg-39" value="IPV6(&quot;IPv6&quot;)" style="text;strokeColor=none;fillColor=none;align=left;verticalAlign=top;spacingLeft=4;spacingRight=4;overflow=hidden;rotatable=0;points=[[0,0.5],[1,0.5]];portConstraint=eastwest;" vertex="1" parent="eS9AzGm47g6UEKA8w0Gg-37">
          <mxGeometry y="66" width="130" height="26" as="geometry" />
        </mxCell>
        <mxCell id="eS9AzGm47g6UEKA8w0Gg-40" value="" style="line;strokeWidth=1;fillColor=none;align=left;verticalAlign=middle;spacingTop=-1;spacingLeft=3;spacingRight=3;rotatable=0;labelPosition=right;points=[];portConstraint=eastwest;" vertex="1" parent="eS9AzGm47g6UEKA8w0Gg-37">
          <mxGeometry y="92" width="130" height="8" as="geometry" />
        </mxCell>
        <mxCell id="eS9AzGm47g6UEKA8w0Gg-41" value="+ type: String" style="text;strokeColor=none;fillColor=none;align=left;verticalAlign=top;spacingLeft=4;spacingRight=4;overflow=hidden;rotatable=0;points=[[0,0.5],[1,0.5]];portConstraint=eastwest;" vertex="1" parent="eS9AzGm47g6UEKA8w0Gg-37">
          <mxGeometry y="100" width="130" height="26" as="geometry" />
        </mxCell>
        <mxCell id="eS9AzGm47g6UEKA8w0Gg-42" value="SecurityGroupJson" style="swimlane;fontStyle=1;childLayout=stackLayout;horizontal=1;startSize=26;fillColor=none;horizontalStack=0;resizeParent=1;resizeParentMax=0;resizeLast=0;collapsible=1;marginBottom=0;" vertex="1" parent="1">
          <mxGeometry x="20" y="170" width="190" height="52" as="geometry" />
        </mxCell>
        <mxCell id="eS9AzGm47g6UEKA8w0Gg-43" value="+ security_group: SecurityGroup" style="text;strokeColor=none;fillColor=none;align=left;verticalAlign=top;spacingLeft=4;spacingRight=4;overflow=hidden;rotatable=0;points=[[0,0.5],[1,0.5]];portConstraint=eastwest;" vertex="1" parent="eS9AzGm47g6UEKA8w0Gg-42">
          <mxGeometry y="26" width="190" height="26" as="geometry" />
        </mxCell>
        <mxCell id="eS9AzGm47g6UEKA8w0Gg-44" value="" style="endArrow=open;shadow=0;strokeWidth=1;rounded=0;endFill=1;edgeStyle=elbowEdgeStyle;elbow=vertical;" edge="1" parent="1" source="eS9AzGm47g6UEKA8w0Gg-43" target="eS9AzGm47g6UEKA8w0Gg-2">
          <mxGeometry x="0.5" y="41" relative="1" as="geometry">
            <mxPoint x="90" y="250" as="sourcePoint" />
            <mxPoint x="220" y="209" as="targetPoint" />
            <mxPoint x="-40" y="32" as="offset" />
            <Array as="points">
              <mxPoint x="190" y="209" />
              <mxPoint x="180" y="230" />
              <mxPoint x="200" y="209" />
              <mxPoint x="190" y="189" />
              <mxPoint x="210" y="135" />
            </Array>
          </mxGeometry>
        </mxCell>
        <mxCell id="eS9AzGm47g6UEKA8w0Gg-45" value="1" style="resizable=0;align=left;verticalAlign=bottom;labelBackgroundColor=none;fontSize=12;" connectable="0" vertex="1" parent="eS9AzGm47g6UEKA8w0Gg-44">
          <mxGeometry x="-1" relative="1" as="geometry">
            <mxPoint x="1" as="offset" />
          </mxGeometry>
        </mxCell>
        <mxCell id="eS9AzGm47g6UEKA8w0Gg-46" value="1" style="resizable=0;align=right;verticalAlign=bottom;labelBackgroundColor=none;fontSize=12;" connectable="0" vertex="1" parent="eS9AzGm47g6UEKA8w0Gg-44">
          <mxGeometry x="1" relative="1" as="geometry">
            <mxPoint x="-4" as="offset" />
          </mxGeometry>
        </mxCell>
        <mxCell id="eS9AzGm47g6UEKA8w0Gg-47" value="SecurityGroupBulkJson" style="swimlane;fontStyle=1;childLayout=stackLayout;horizontal=1;startSize=26;fillColor=none;horizontalStack=0;resizeParent=1;resizeParentMax=0;resizeLast=0;collapsible=1;marginBottom=0;" vertex="1" parent="1">
          <mxGeometry x="20" y="232" width="230" height="52" as="geometry" />
        </mxCell>
        <mxCell id="eS9AzGm47g6UEKA8w0Gg-48" value="+ security_groups: List&lt;SecurityGroup&gt;" style="text;strokeColor=none;fillColor=none;align=left;verticalAlign=top;spacingLeft=4;spacingRight=4;overflow=hidden;rotatable=0;points=[[0,0.5],[1,0.5]];portConstraint=eastwest;" vertex="1" parent="eS9AzGm47g6UEKA8w0Gg-47">
          <mxGeometry y="26" width="230" height="26" as="geometry" />
        </mxCell>
        <mxCell id="eS9AzGm47g6UEKA8w0Gg-49" value="" style="endArrow=open;shadow=0;strokeWidth=1;rounded=0;endFill=1;edgeStyle=elbowEdgeStyle;elbow=vertical;" edge="1" parent="1" source="eS9AzGm47g6UEKA8w0Gg-48" target="eS9AzGm47g6UEKA8w0Gg-13">
          <mxGeometry x="0.5" y="41" relative="1" as="geometry">
            <mxPoint x="200" y="181" as="sourcePoint" />
            <mxPoint x="230" y="271" as="targetPoint" />
            <mxPoint x="-40" y="32" as="offset" />
            <Array as="points">
              <mxPoint x="220" y="271" />
              <mxPoint x="200" y="202" />
              <mxPoint x="220" y="181" />
              <mxPoint x="210" y="161" />
              <mxPoint x="230" y="107" />
            </Array>
          </mxGeometry>
        </mxCell>
        <mxCell id="eS9AzGm47g6UEKA8w0Gg-50" value="1" style="resizable=0;align=left;verticalAlign=bottom;labelBackgroundColor=none;fontSize=12;" connectable="0" vertex="1" parent="eS9AzGm47g6UEKA8w0Gg-49">
          <mxGeometry x="-1" relative="1" as="geometry">
            <mxPoint x="1" as="offset" />
          </mxGeometry>
        </mxCell>
        <mxCell id="eS9AzGm47g6UEKA8w0Gg-51" value="*" style="resizable=0;align=right;verticalAlign=bottom;labelBackgroundColor=none;fontSize=12;" connectable="0" vertex="1" parent="eS9AzGm47g6UEKA8w0Gg-49">
          <mxGeometry x="1" relative="1" as="geometry">
            <mxPoint x="-4" as="offset" />
          </mxGeometry>
        </mxCell>
      </root>
    </mxGraphModel>
  </diagram>
</mxfile>
